# xmcd
#
# Track frame offsets:
#	150
#	13745
#	31909
#	47281
#	60765
#	74964
#	86653
#	98981
#	112904
#	129070
#	144442
#	160637
#	177792
#	191270
#	205488
#	221871
#	238364
#	248715
#	263997
#	280077
#	294862
#
# Disc length: 4121 seconds
#
# Revision: 0
# Processed by: cddbd v1.5.2PL0 Copyright (c) Steve Scherf et al.
# Submitted via: EasyCDDAExtractor 8.2.3.1
#
DISCID=27101715
DTITLE=Só Modão Oi Paixão - Volume 2
DYEAR=2008
DGENRE=Sertanejo
TTITLE0=Paixão Goiana - Ronaldo Viola e João Carvalho
TTITLE1=Rumo a Goiânia - Leandro e Leonardo
TTITLE2=Canarinho prisioneiro - Chico Rey e Paraná
TTITLE3=Ainda ontem chorei de saudade - Rionegro e Solimões
TTITLE4=Fazenda São Francisco - João Paulo e Daniel
TTITLE5=Pedaço de minha vida - Chico Rey e Paraná
TTITLE6=Flor de Goiás - Ronaldo Viola e João Carvalho
TTITLE7=Vá pro inferno com o seu amor - Milionário e José Rico
TTITLE8=Meu reino encantado - Daniel
TTITLE9=Tchau amor - Bruno e Marrone
TTITLE10=Vida, viola e violeiro - Zezé di Carmargo e Luciano
TTITLE11=Amor de primavera - Di Paulo e Paulino
TTITLE12=Saco de ouro - Chitãozinho e Xororó
TTITLE13=Porque - Cézar e Paulinho
TTITLE14=O doutor e o caipira - Goiano e Paranaense
TTITLE15=Viva a vida - Milionário e José Rico
TTITLE16=60 dias apaixonado - Chitãozinho e Xororó
TTITLE17=O último dos apaixonados - Zezé di Camargo e Luciano
TTITLE18=Tô por aí - Rionegro e Solimões
TTITLE19=Coração de vidro - Zezé di Camargo e Luciano
TTITLE20=Meu desespero - João Mineiro e Marciano
EXTD=
EXTT0=
EXTT1=
EXTT2=
EXTT3=
EXTT4=
EXTT5=
EXTT6=
EXTT7=
EXTT8=
EXTT9=
EXTT10=
EXTT11=
EXTT12=
EXTT13=
EXTT14=
EXTT15=
EXTT16=
EXTT17=
EXTT18=
EXTT19=
EXTT20=
PLAYORDER=
